<?xml version="1.0" standalone="no"?>
<!DOCTYPE svg PUBLIC "-//W3C//DTD SVG 20010904//EN"
 "http://www.w3.org/TR/2001/REC-SVG-20010904/DTD/svg10.dtd">
<svg version="1.0" xmlns="http://www.w3.org/2000/svg"
 width="1500.000000pt" height="1500.000000pt" viewBox="0 0 1500.000000 1500.000000"
 preserveAspectRatio="xMidYMid meet">
<metadata>
Created by potrace 1.11, written by Peter Selinger 2001-2013
</metadata>
<g transform="translate(0.000000,1500.000000) scale(0.100000,-0.100000)"
fill="#000000" stroke="none">
<path d="M5277 12837 l-217 -92 -1404 -1404 -1403 -1403 -92 -222 -91 -221 0
-1990 0 -1990 91 -221 92 -222 1406 -1405 1406 -1406 220 -90 219 -91 1991 0
1990 0 221 91 221 91 1406 1406 1406 1407 90 219 91 220 0 1991 0 1991 -91
220 -90 219 -1406 1407 -1406 1406 -221 91 -221 91 -1995 -1 -1995 -1 -218
-91z m5185 -2364 l1228 -1228 0 -569 0 -569 -757 5 -758 6 -165 -46 -165 -46
-930 -572 c-511 -315 -931 -572 -932 -571 0 1 -135 569 -299 1262 -163 693
-300 1264 -305 1269 -6 7 -745 273 -917 330 l-51 17 -1063 -817 c-1008 -776
-1065 -818 -1113 -825 -27 -4 -249 -8 -492 -8 l-443 -1 0 567 0 568 1227 1227
1228 1228 1740 0 1740 0 1227 -1227z m-3762 -3493 c155 -657 285 -1199 290
-1203 4 -5 211 -93 461 -197 l453 -188 100 62 c56 34 604 372 1219 750 l1118
688 674 -7 675 -8 0 -556 0 -556 -1227 -1227 -1228 -1228 -1740 0 -1740 0
-1227 1227 -1228 1228 0 556 0 556 362 6 c199 4 465 7 592 7 l231 0 186 64
187 65 773 595 c624 480 775 592 780 578 4 -9 133 -555 289 -1212z"/>
</g>
</svg>
